<svg xmlns="http://www.w3.org/2000/svg" viewBox="0 0 1323.36 1184.7"><defs><style>.cls-1{fill:#23242e;stroke:#fff;stroke-miterlimit:10;stroke-width:70px;}</style></defs><g id="Layer_2" data-name="Layer 2"><g id="Vrstva_1" data-name="Vrstva 1"><path class="cls-1" d="M938.47,35C821,35,732.18,82,661.68,181.23,591.18,84.61,502.4,37.61,384.9,37.61,191.67,35,35,204.73,35,413.62,35,604.24,176,727,311.78,844.46c15.67,13.06,34,28.73,49.62,44.39l60.05,52.23c114.89,101.83,239.94,199.47,239.94,199.47s115.18-87.19,245.74-207.31l52.22-47c18.28-15.66,33.95-31.33,52.23-44.39C1150,727,1288.36,606.85,1288.36,413.62,1288.36,204.73,1131.69,35,938.47,35Z"/></g></g></svg>