<svg xmlns="http://www.w3.org/2000/svg" viewBox="0 0 1379.31 1292"><defs><style>.cls-1{fill:#fff;}</style></defs><g id="Layer_2" data-name="Layer 2"><g id="Vrstva_1" data-name="Vrstva 1"><circle class="cls-1" cx="690.6" cy="314.33" r="314.33" transform="translate(-20 580.39) rotate(-45)"/><path class="cls-1" d="M1378.26,1215.06A690.67,690.67,0,0,0,1016.9,646.29q-28.62-15.42-58.79-28.21-6.86-2.9-13.77-5.64C920.66,628,901.56,644.77,876.55,661a343.68,343.68,0,0,1-373.79,0c-25-16.23-43.1-33-67.78-48.56q-6.92,2.76-13.78,5.64Q391,630.85,362.41,646.29A688.87,688.87,0,0,0,1.06,1215.06Q0,1234.21,0,1253.53T1.06,1292h1377.2q1-19.15,1-38.47T1378.26,1215.06Z"/></g></g></svg>