<svg xmlns="http://www.w3.org/2000/svg" viewBox="0 0 852 147.23"><defs><style>.cls-1{fill:#fff;}</style></defs><g id="Vrstva_2" data-name="Vrstva 2"><g id="Vrstva_1-2" data-name="Vrstva 1"><path class="cls-1" d="M0,0,49.48,117.06S62.75,91.72,64,88.6a15.68,15.68,0,0,0,0-12L31.28,0Z"/><path class="cls-1" d="M62.13,147.23l57.16-136A18.2,18.2,0,0,1,136.23,0l18.24.17L93.27,147.23Z"/><path class="cls-1" d="M381.71,77.45,359.24,48.27v99h28.81V96.08A30.55,30.55,0,0,0,381.71,77.45Z"/><path class="cls-1" d="M473.76,69.78,496.23,99V0H467.42V51.15A30.55,30.55,0,0,0,473.76,69.78Z"/><path class="cls-1" d="M378.42.06,359.24,0l93,133.78a30.53,30.53,0,0,0,25,13.11l19.18.06-93-133.79A30.55,30.55,0,0,0,378.42.06Z"/><path class="cls-1" d="M238.12-43.21h4.94a23.87,23.87,0,0,1,23.87,23.87V72.17a0,0,0,0,1,0,0H262A23.87,23.87,0,0,1,238.12,48.3V-43.21A0,0,0,0,1,238.12-43.21Z" transform="translate(267 -238.04) rotate(90)"/><path class="cls-1" d="M238.12,75.06h4.94a23.87,23.87,0,0,1,23.87,23.87v91.51a0,0,0,0,1,0,0H262a23.87,23.87,0,0,1-23.87-23.87V75.06a0,0,0,0,1,0,0Z" transform="translate(385.27 -119.78) rotate(90)"/><path class="cls-1" d="M238.12,15.92h4.94A23.87,23.87,0,0,1,266.93,39.8v91.51a0,0,0,0,1,0,0H262a23.87,23.87,0,0,1-23.87-23.87V15.92A0,0,0,0,1,238.12,15.92Z" transform="translate(326.14 -178.91) rotate(90)"/><path class="cls-1" d="M594.44,0H537.05V29h57.6c25,0,46,20.49,45.53,45.53a44.67,44.67,0,0,1-44.65,43.78H566V97.6a29,29,0,0,0-29-29h0v70h0v8.6h58.48a73.61,73.61,0,0,0,73.61-74.59C668.62,32.18,634.9,0,594.44,0Z"/><path class="cls-1" d="M778.39,0A73.62,73.62,0,1,0,852,73.61,73.62,73.62,0,0,0,778.39,0Zm0,118.27A44.66,44.66,0,1,1,823,73.61,44.67,44.67,0,0,1,778.39,118.27Z"/></g></g></svg>